<svg xmlns="http://www.w3.org/2000/svg" viewBox="0 0 1600 900" preserveAspectRatio="xMidYMid slice" aria-hidden="true">
  <defs>
    <linearGradient id="bg" x1="0" y1="0" x2="1" y2="1">
      <stop offset="0" stop-color="#030807"/>
      <stop offset="0.5" stop-color="#07130F"/>
      <stop offset="1" stop-color="#020504"/>
    </linearGradient>
    <radialGradient id="glow" cx="72%" cy="38%" r="58%">
      <stop offset="0" stop-color="#10B981" stop-opacity="0.18"/>
      <stop offset="0.48" stop-color="#10B981" stop-opacity="0.055"/>
      <stop offset="1" stop-color="#10B981" stop-opacity="0"/>
    </radialGradient>
    <linearGradient id="gold" x1="0" y1="0" x2="1" y2="0">
      <stop offset="0" stop-color="#D4AF37" stop-opacity="0"/>
      <stop offset="0.5" stop-color="#D4AF37" stop-opacity="0.45"/>
      <stop offset="1" stop-color="#D4AF37" stop-opacity="0"/>
    </linearGradient>
    <pattern id="grid" width="72" height="72" patternUnits="userSpaceOnUse">
      <path d="M72 0H0V72" fill="none" stroke="#B9D8CC" stroke-opacity="0.055" stroke-width="1"/>
    </pattern>
    <filter id="blur"><feGaussianBlur stdDeviation="38"/></filter>
  </defs>
  <rect width="1600" height="900" fill="url(#bg)"/>
  <rect width="1600" height="900" fill="url(#grid)"/>
  <rect width="1600" height="900" fill="url(#glow)"/>
  <g opacity="0.7" filter="url(#blur)">
    <circle cx="1170" cy="330" r="170" fill="#10B981" opacity="0.08"/>
    <circle cx="1380" cy="650" r="130" fill="#D4AF37" opacity="0.045"/>
  </g>
  <g fill="none" stroke="#8FBDB0" stroke-opacity="0.09" stroke-width="2">
    <path d="M920 760V350l210-135 210 135v410"/>
    <path d="M990 760V405l140-90 140 90v355"/>
    <path d="M1060 760V460l70-45 70 45v300"/>
    <path d="M860 760h560"/>
    <path d="M920 350h420"/>
  </g>
  <path d="M760 820h720" stroke="url(#gold)" stroke-width="1.5"/>
  <rect width="1600" height="900" fill="url(#bg)" opacity="0.22"/>
</svg>
